<mxfile host="app.diagrams.net" modified="2023-10-10T04:53:08.784Z" agent="Mozilla/5.0 (Macintosh; Intel Mac OS X 10_15_7) AppleWebKit/537.36 (KHTML, like Gecko) Chrome/117.0.0.0 Safari/537.36" etag="t0yXONjB8upREo6jLLUG" version="22.0.4" type="github">
  <diagram name="Page-1" id="Od0HrYcrxd3IYDJddU-p">
    <mxGraphModel dx="954" dy="610" grid="1" gridSize="10" guides="1" tooltips="1" connect="1" arrows="1" fold="1" page="1" pageScale="1" pageWidth="827" pageHeight="1169" math="0" shadow="0">
      <root>
        <mxCell id="0" />
        <mxCell id="1" parent="0" />
        <mxCell id="_5tm6AC8fSd4CqpAaEgZ-19" value="" style="rounded=0;whiteSpace=wrap;html=1;fillColor=none;strokeColor=#FF6666;" vertex="1" parent="1">
          <mxGeometry x="70" y="210" width="400" height="180" as="geometry" />
        </mxCell>
        <mxCell id="_5tm6AC8fSd4CqpAaEgZ-7" style="edgeStyle=orthogonalEdgeStyle;rounded=0;orthogonalLoop=1;jettySize=auto;html=1;" edge="1" parent="1" source="_5tm6AC8fSd4CqpAaEgZ-1" target="_5tm6AC8fSd4CqpAaEgZ-6">
          <mxGeometry relative="1" as="geometry" />
        </mxCell>
        <mxCell id="_5tm6AC8fSd4CqpAaEgZ-1" value="Merchant" style="rounded=1;whiteSpace=wrap;html=1;" vertex="1" parent="1">
          <mxGeometry x="50" y="110" width="120" height="60" as="geometry" />
        </mxCell>
        <mxCell id="_5tm6AC8fSd4CqpAaEgZ-3" value="Payment Gateway" style="rounded=1;whiteSpace=wrap;html=1;" vertex="1" parent="1">
          <mxGeometry x="230" y="630" width="120" height="60" as="geometry" />
        </mxCell>
        <mxCell id="_5tm6AC8fSd4CqpAaEgZ-4" value="" style="shape=mxgraph.signs.travel.bank;html=1;pointerEvents=1;fillColor=#000000;strokeColor=none;verticalLabelPosition=bottom;verticalAlign=top;align=center;" vertex="1" parent="1">
          <mxGeometry x="649" y="610" width="99" height="86" as="geometry" />
        </mxCell>
        <mxCell id="_5tm6AC8fSd4CqpAaEgZ-5" style="edgeStyle=orthogonalEdgeStyle;rounded=0;orthogonalLoop=1;jettySize=auto;html=1;entryX=0.03;entryY=0.65;entryDx=0;entryDy=0;entryPerimeter=0;" edge="1" parent="1" source="_5tm6AC8fSd4CqpAaEgZ-3" target="_5tm6AC8fSd4CqpAaEgZ-4">
          <mxGeometry relative="1" as="geometry" />
        </mxCell>
        <mxCell id="_5tm6AC8fSd4CqpAaEgZ-9" style="edgeStyle=orthogonalEdgeStyle;rounded=0;orthogonalLoop=1;jettySize=auto;html=1;" edge="1" parent="1" source="_5tm6AC8fSd4CqpAaEgZ-6" target="_5tm6AC8fSd4CqpAaEgZ-8">
          <mxGeometry relative="1" as="geometry" />
        </mxCell>
        <mxCell id="_5tm6AC8fSd4CqpAaEgZ-6" value="" style="sketch=0;points=[[0,0,0],[0.25,0,0],[0.5,0,0],[0.75,0,0],[1,0,0],[0,1,0],[0.25,1,0],[0.5,1,0],[0.75,1,0],[1,1,0],[0,0.25,0],[0,0.5,0],[0,0.75,0],[1,0.25,0],[1,0.5,0],[1,0.75,0]];outlineConnect=0;fontColor=#232F3E;fillColor=#8C4FFF;strokeColor=#ffffff;dashed=0;verticalLabelPosition=bottom;verticalAlign=top;align=center;html=1;fontSize=12;fontStyle=0;aspect=fixed;shape=mxgraph.aws4.resourceIcon;resIcon=mxgraph.aws4.route_53;" vertex="1" parent="1">
          <mxGeometry x="260" y="101" width="78" height="78" as="geometry" />
        </mxCell>
        <mxCell id="_5tm6AC8fSd4CqpAaEgZ-8" value="" style="outlineConnect=0;dashed=0;verticalLabelPosition=bottom;verticalAlign=top;align=center;html=1;shape=mxgraph.aws3.api_gateway;fillColor=#D9A741;gradientColor=none;" vertex="1" parent="1">
          <mxGeometry x="414" y="101" width="76.5" height="93" as="geometry" />
        </mxCell>
        <mxCell id="_5tm6AC8fSd4CqpAaEgZ-10" value="" style="outlineConnect=0;dashed=0;verticalLabelPosition=bottom;verticalAlign=top;align=center;html=1;shape=mxgraph.aws3.classic_load_balancer;fillColor=#F58534;gradientColor=none;" vertex="1" parent="1">
          <mxGeometry x="580" y="110" width="69" height="72" as="geometry" />
        </mxCell>
        <mxCell id="_5tm6AC8fSd4CqpAaEgZ-11" style="edgeStyle=orthogonalEdgeStyle;rounded=0;orthogonalLoop=1;jettySize=auto;html=1;entryX=0;entryY=0.5;entryDx=0;entryDy=0;entryPerimeter=0;" edge="1" parent="1" source="_5tm6AC8fSd4CqpAaEgZ-8" target="_5tm6AC8fSd4CqpAaEgZ-10">
          <mxGeometry relative="1" as="geometry" />
        </mxCell>
        <mxCell id="_5tm6AC8fSd4CqpAaEgZ-28" style="edgeStyle=orthogonalEdgeStyle;rounded=0;orthogonalLoop=1;jettySize=auto;html=1;" edge="1" parent="1" source="_5tm6AC8fSd4CqpAaEgZ-12" target="_5tm6AC8fSd4CqpAaEgZ-16">
          <mxGeometry relative="1" as="geometry" />
        </mxCell>
        <mxCell id="_5tm6AC8fSd4CqpAaEgZ-12" value="Amazon ECS" style="sketch=0;outlineConnect=0;fontColor=#232F3E;gradientColor=none;strokeColor=#ffffff;fillColor=#232F3E;dashed=0;verticalLabelPosition=middle;verticalAlign=bottom;align=center;html=1;whiteSpace=wrap;fontSize=10;fontStyle=1;spacing=3;shape=mxgraph.aws4.productIcon;prIcon=mxgraph.aws4.ecs;" vertex="1" parent="1">
          <mxGeometry x="190" y="240" width="80" height="100" as="geometry" />
        </mxCell>
        <mxCell id="_5tm6AC8fSd4CqpAaEgZ-15" style="edgeStyle=orthogonalEdgeStyle;rounded=0;orthogonalLoop=1;jettySize=auto;html=1;" edge="1" parent="1" source="_5tm6AC8fSd4CqpAaEgZ-13" target="_5tm6AC8fSd4CqpAaEgZ-19">
          <mxGeometry relative="1" as="geometry" />
        </mxCell>
        <mxCell id="_5tm6AC8fSd4CqpAaEgZ-27" style="edgeStyle=orthogonalEdgeStyle;rounded=0;orthogonalLoop=1;jettySize=auto;html=1;entryX=0.25;entryY=0;entryDx=0;entryDy=0;" edge="1" parent="1" source="_5tm6AC8fSd4CqpAaEgZ-13" target="_5tm6AC8fSd4CqpAaEgZ-21">
          <mxGeometry relative="1" as="geometry" />
        </mxCell>
        <mxCell id="_5tm6AC8fSd4CqpAaEgZ-13" value="" style="sketch=0;points=[[0,0,0],[0.25,0,0],[0.5,0,0],[0.75,0,0],[1,0,0],[0,1,0],[0.25,1,0],[0.5,1,0],[0.75,1,0],[1,1,0],[0,0.25,0],[0,0.5,0],[0,0.75,0],[1,0.25,0],[1,0.5,0],[1,0.75,0]];outlineConnect=0;fontColor=#232F3E;fillColor=#ED7100;strokeColor=#ffffff;dashed=0;verticalLabelPosition=bottom;verticalAlign=top;align=center;html=1;fontSize=12;fontStyle=0;aspect=fixed;shape=mxgraph.aws4.resourceIcon;resIcon=mxgraph.aws4.fargate;" vertex="1" parent="1">
          <mxGeometry x="540" y="220" width="78" height="78" as="geometry" />
        </mxCell>
        <mxCell id="_5tm6AC8fSd4CqpAaEgZ-14" style="edgeStyle=orthogonalEdgeStyle;rounded=0;orthogonalLoop=1;jettySize=auto;html=1;entryX=1;entryY=0.5;entryDx=0;entryDy=0;entryPerimeter=0;" edge="1" parent="1" source="_5tm6AC8fSd4CqpAaEgZ-10" target="_5tm6AC8fSd4CqpAaEgZ-13">
          <mxGeometry relative="1" as="geometry" />
        </mxCell>
        <mxCell id="_5tm6AC8fSd4CqpAaEgZ-16" value="" style="sketch=0;points=[[0,0,0],[0.25,0,0],[0.5,0,0],[0.75,0,0],[1,0,0],[0,1,0],[0.25,1,0],[0.5,1,0],[0.75,1,0],[1,1,0],[0,0.25,0],[0,0.5,0],[0,0.75,0],[1,0.25,0],[1,0.5,0],[1,0.75,0]];outlineConnect=0;fontColor=#232F3E;fillColor=#C925D1;strokeColor=#ffffff;dashed=0;verticalLabelPosition=bottom;verticalAlign=top;align=center;html=1;fontSize=12;fontStyle=0;aspect=fixed;shape=mxgraph.aws4.resourceIcon;resIcon=mxgraph.aws4.aurora;" vertex="1" parent="1">
          <mxGeometry x="320" y="240" width="78" height="78" as="geometry" />
        </mxCell>
        <mxCell id="_5tm6AC8fSd4CqpAaEgZ-20" style="edgeStyle=orthogonalEdgeStyle;rounded=0;orthogonalLoop=1;jettySize=auto;html=1;entryX=0;entryY=0.5;entryDx=0;entryDy=0;" edge="1" parent="1" source="_5tm6AC8fSd4CqpAaEgZ-18" target="_5tm6AC8fSd4CqpAaEgZ-3">
          <mxGeometry relative="1" as="geometry">
            <Array as="points">
              <mxPoint x="30" y="280" />
              <mxPoint x="30" y="480" />
              <mxPoint x="110" y="480" />
              <mxPoint x="110" y="590" />
              <mxPoint x="170" y="590" />
              <mxPoint x="170" y="660" />
            </Array>
          </mxGeometry>
        </mxCell>
        <mxCell id="_5tm6AC8fSd4CqpAaEgZ-29" style="edgeStyle=orthogonalEdgeStyle;rounded=0;orthogonalLoop=1;jettySize=auto;html=1;" edge="1" parent="1" source="_5tm6AC8fSd4CqpAaEgZ-18" target="_5tm6AC8fSd4CqpAaEgZ-12">
          <mxGeometry relative="1" as="geometry" />
        </mxCell>
        <mxCell id="_5tm6AC8fSd4CqpAaEgZ-18" value="NAT gateway" style="sketch=0;outlineConnect=0;fontColor=#232F3E;gradientColor=none;strokeColor=#232F3E;fillColor=#ffffff;dashed=0;verticalLabelPosition=bottom;verticalAlign=top;align=center;html=1;fontSize=12;fontStyle=0;aspect=fixed;shape=mxgraph.aws4.resourceIcon;resIcon=mxgraph.aws4.nat_gateway;" vertex="1" parent="1">
          <mxGeometry x="90" y="250" width="60" height="60" as="geometry" />
        </mxCell>
        <mxCell id="_5tm6AC8fSd4CqpAaEgZ-21" value="" style="rounded=0;whiteSpace=wrap;html=1;fillColor=none;strokeColor=#FF6666;" vertex="1" parent="1">
          <mxGeometry x="480" y="360" width="400" height="180" as="geometry" />
        </mxCell>
        <mxCell id="_5tm6AC8fSd4CqpAaEgZ-26" style="edgeStyle=orthogonalEdgeStyle;rounded=0;orthogonalLoop=1;jettySize=auto;html=1;" edge="1" parent="1" source="_5tm6AC8fSd4CqpAaEgZ-22" target="_5tm6AC8fSd4CqpAaEgZ-23">
          <mxGeometry relative="1" as="geometry" />
        </mxCell>
        <mxCell id="_5tm6AC8fSd4CqpAaEgZ-22" value="Amazon ECS" style="sketch=0;outlineConnect=0;fontColor=#232F3E;gradientColor=none;strokeColor=#ffffff;fillColor=#232F3E;dashed=0;verticalLabelPosition=middle;verticalAlign=bottom;align=center;html=1;whiteSpace=wrap;fontSize=10;fontStyle=1;spacing=3;shape=mxgraph.aws4.productIcon;prIcon=mxgraph.aws4.ecs;" vertex="1" parent="1">
          <mxGeometry x="658.5" y="390" width="80" height="100" as="geometry" />
        </mxCell>
        <mxCell id="_5tm6AC8fSd4CqpAaEgZ-23" value="" style="sketch=0;points=[[0,0,0],[0.25,0,0],[0.5,0,0],[0.75,0,0],[1,0,0],[0,1,0],[0.25,1,0],[0.5,1,0],[0.75,1,0],[1,1,0],[0,0.25,0],[0,0.5,0],[0,0.75,0],[1,0.25,0],[1,0.5,0],[1,0.75,0]];outlineConnect=0;fontColor=#232F3E;fillColor=#C925D1;strokeColor=#ffffff;dashed=0;verticalLabelPosition=bottom;verticalAlign=top;align=center;html=1;fontSize=12;fontStyle=0;aspect=fixed;shape=mxgraph.aws4.resourceIcon;resIcon=mxgraph.aws4.aurora;" vertex="1" parent="1">
          <mxGeometry x="790" y="390" width="78" height="78" as="geometry" />
        </mxCell>
        <mxCell id="_5tm6AC8fSd4CqpAaEgZ-25" style="edgeStyle=orthogonalEdgeStyle;rounded=0;orthogonalLoop=1;jettySize=auto;html=1;" edge="1" parent="1" source="_5tm6AC8fSd4CqpAaEgZ-24" target="_5tm6AC8fSd4CqpAaEgZ-22">
          <mxGeometry relative="1" as="geometry" />
        </mxCell>
        <mxCell id="_5tm6AC8fSd4CqpAaEgZ-24" value="NAT gateway" style="sketch=0;outlineConnect=0;fontColor=#232F3E;gradientColor=none;strokeColor=#232F3E;fillColor=#ffffff;dashed=0;verticalLabelPosition=bottom;verticalAlign=top;align=center;html=1;fontSize=12;fontStyle=0;aspect=fixed;shape=mxgraph.aws4.resourceIcon;resIcon=mxgraph.aws4.nat_gateway;" vertex="1" parent="1">
          <mxGeometry x="530" y="399" width="60" height="60" as="geometry" />
        </mxCell>
        <mxCell id="_5tm6AC8fSd4CqpAaEgZ-30" value="Dynamo DB" style="text;html=1;strokeColor=none;fillColor=none;align=center;verticalAlign=middle;whiteSpace=wrap;rounded=0;" vertex="1" parent="1">
          <mxGeometry x="329" y="330" width="60" height="30" as="geometry" />
        </mxCell>
      </root>
    </mxGraphModel>
  </diagram>
</mxfile>
